<svg xmlns="http://www.w3.org/2000/svg" version="1.1" xmlns:xlink="http://www.w3.org/1999/xlink" xmlns:svgjs="http://svgjs.dev/svgjs" width="1500" height="1500" viewBox="0 0 1500 1500"><g transform="matrix(1,0,0,1,-0.21332335329316265,-0.21332335329350371)"><svg viewBox="0 0 334 334" data-background-color="#000000" preserveAspectRatio="xMidYMid meet" height="1500" width="1500" xmlns="http://www.w3.org/2000/svg" xmlns:xlink="http://www.w3.org/1999/xlink"><g id="tight-bounds" transform="matrix(1,0,0,1,0.04749999999998522,0.04750000000001364)"><svg viewBox="0 0 333.90454557049503 333.90454557049503" height="333.90454557049503" width="333.90454557049503"><g><svg></svg></g><g><svg viewBox="0 0 333.90454557049503 333.90454557049503" height="333.90454557049503" width="333.90454557049503"><g><path d="M0 166.952c0-92.205 74.747-166.952 166.952-166.952 92.205 0 166.952 74.747 166.953 166.952 0 92.205-74.747 166.952-166.953 166.953-92.205 0-166.952-74.747-166.952-166.953zM166.952 329.894c89.99 0 162.942-72.951 162.942-162.942 0-89.99-72.951-162.942-162.942-162.941-89.99 0-162.942 72.951-162.941 162.941 0 89.99 72.951 162.942 162.941 162.942z" data-fill-palette-color="tertiary" fill="#ffffff" stroke="transparent"></path><ellipse rx="160.27418187383762" ry="160.27418187383762" cx="166.95227278524752" cy="166.95227278524752" fill="#ffffff" stroke="transparent" stroke-width="0" fill-opacity="1" data-fill-palette-color="tertiary"></ellipse></g><g transform="matrix(1,0,0,1,82.82792907920623,71.17305217166896)"><svg viewBox="0 0 168.24868741208257 191.55844122715712" height="191.55844122715712" width="168.24868741208257"><g><svg viewBox="0 0 168.24868741208257 191.55844122715712" height="191.55844122715712" width="168.24868741208257"><g><svg viewBox="0 0 213.1584412271571 242.69014732861731" height="191.55844122715712" width="168.24868741208257"><g transform="matrix(1,0,0,1,0,122.89519445012547)"><svg viewBox="0 0 213.1584412271571 119.79495287849184" height="119.79495287849184" width="213.1584412271571"><g id="textblocktransform"><svg viewBox="0 0 213.1584412271571 119.79495287849184" height="119.79495287849184" width="213.1584412271571" id="textblock"><g><svg viewBox="0 0 213.1584412271571 119.79495287849184" height="119.79495287849184" width="213.1584412271571"><g transform="matrix(1,0,0,1,0,0)"><svg width="213.1584412271571" viewBox="43.68 -40.45 179.89337295798813 91.4" height="119.79495287849184" data-palette-color="#000000"><g transform="matrix(1,0,0,1,0,0)"><g><svg width="12.795552957988141" viewBox="1.78 -36.36 74.21 36.36" height="6.269208721999932" data-palette-color="#000000" id="scriptelement" x="208.12777647899406" y="-34.53678436099997"><path d="M12.91-30.02L1.78-30.02 1.78-36.36 31.64-36.36 31.64-30.02 20.51-30.02 20.51 0 12.91 0 12.91-30.02ZM36.57 0L36.57-36.36 46.06-36.36 56.07-11.93 56.5-11.93 66.51-36.36 75.99-36.36 75.99 0 68.53 0 68.53-23.67 68.23-23.67 58.82-0.18 53.74-0.18 44.33-23.76 44.03-23.76 44.03 0 36.57 0Z" opacity="1" transform="matrix(1,0,0,1,0,0)" fill="#000000" class="undefined-123" data-fill-palette-color="quaternary" id="yy-123"></path></svg></g></g><path d="M205.478-31.402C205.478-36.399 209.529-40.45 214.526-40.45 219.523-40.45 223.573-36.399 223.573-31.402 223.573-26.405 219.523-22.354 214.526-22.354 209.529-22.354 205.478-26.405 205.478-31.402ZM214.526-22.754C219.302-22.754 223.173-26.626 223.173-31.402 223.173-36.178 219.302-40.05 214.526-40.05 209.75-40.05 205.878-36.178 205.878-31.402 205.878-26.626 209.75-22.754 214.526-22.754Z" fill="#000000" id="scriptcircle" data-fill-palette-color="quaternary"></path><svg></svg><svg></svg><g class="wordmark-text-0" data-fill-palette-color="quaternary" id="text-0"><path transform="translate(39.68,0)" d="M24.75-8.4v-6.35c0-0.767-0.283-1.51-0.85-2.23-0.567-0.713-1.567-1.12-3-1.22v0c-0.933 1.133-2.067 1.7-3.4 1.7v0c-1.133 0-2.1-0.4-2.9-1.2-0.8-0.8-1.2-1.783-1.2-2.95v0c0-1.167 0.4-2.15 1.2-2.95 0.8-0.8 1.767-1.2 2.9-1.2v0c0.6 0 1.193 0.167 1.78 0.5 0.58 0.333 1.103 0.733 1.57 1.2v0c0.733-0.033 1.3-0.15 1.7-0.35 0.4-0.2 0.693-0.443 0.88-0.73 0.18-0.28 0.287-0.603 0.32-0.97 0.033-0.367 0.05-0.733 0.05-1.1v0-5.05c0-0.833-0.257-1.6-0.77-2.3-0.52-0.7-1.397-1.05-2.63-1.05v0h-10.45l-0.05 33c0 0.667-0.31 1.173-0.93 1.52-0.613 0.353-1.287 0.53-2.02 0.53v0c-1.967 0-2.95-0.8-2.95-2.4v0-34.7c0-1.2 0.31-2 0.93-2.4 0.613-0.4 1.353-0.6 2.22-0.6v0h14.5c0.867 0 1.793 0.167 2.78 0.5 0.98 0.333 1.903 0.783 2.77 1.35v0h-0.05c0.867 0.633 1.51 1.467 1.93 2.5 0.413 1.033 0.62 2.233 0.62 3.6v0 5.65c0 1.333-0.283 2.423-0.85 3.27-0.567 0.853-1.167 1.53-1.8 2.03v0c0.433 0.267 0.85 0.54 1.25 0.82 0.4 0.287 0.733 0.597 1 0.93v0c0.433 0.467 0.777 1.017 1.03 1.65 0.247 0.633 0.37 1.383 0.37 2.25v0 7.15c0 2.733-1.067 4.75-3.2 6.05v0c-1.067 0.667-2.073 1.167-3.02 1.5-0.953 0.333-1.897 0.5-2.83 0.5v0h-7.4c-0.567 0-1.007-0.233-1.32-0.7-0.32-0.467-0.48-1.083-0.48-1.85v0c0-1.667 0.7-2.5 2.1-2.5v0h6.85c1.233 0 2.1-0.35 2.6-1.05 0.5-0.7 0.75-1.483 0.75-2.35zM51.85 0h-6.55c-1.033 0-2.017-0.143-2.95-0.43-0.933-0.28-1.833-0.687-2.7-1.22v0 0.05c-1.633-1.033-2.45-2.933-2.45-5.7v0-2.45c0-1.367 0.243-2.56 0.73-3.58 0.48-1.013 1.153-1.82 2.02-2.42v0h-0.05c0.833-0.567 1.717-0.993 2.65-1.28 0.933-0.28 1.833-0.42 2.7-0.42v0h11.05v-4.65c0-0.833-0.257-1.593-0.77-2.28-0.52-0.68-1.397-1.02-2.63-1.02v0h-5.85c-1.267 0-2.14 0.307-2.62 0.92-0.487 0.62-0.73 1.347-0.73 2.18v0 0.4c0 1.733-0.933 2.6-2.8 2.6v0c-1.867 0-2.8-0.867-2.8-2.6v0-0.45c0-1.367 0.243-2.517 0.73-3.45 0.48-0.933 1.137-1.717 1.97-2.35v0h-0.05c0.867-0.567 1.777-1.033 2.73-1.4 0.947-0.367 1.853-0.55 2.72-0.55v0h7.6c0.833 0 1.727 0.183 2.68 0.55 0.947 0.367 1.837 0.833 2.67 1.4v0h-0.05c0.867 0.633 1.533 1.457 2 2.47 0.467 1.02 0.7 2.197 0.7 3.53v0 20.05c0 1.6-0.917 2.4-2.75 2.4v0c-0.367 0-0.707-0.017-1.02-0.05-0.32-0.033-0.603-0.127-0.85-0.28-0.253-0.147-0.453-0.363-0.6-0.65-0.153-0.28-0.23-0.653-0.23-1.12v0l-0.05-10.95h-10.1c-0.733 0-1.3 0.083-1.7 0.25-0.4 0.167-0.717 0.433-0.95 0.8v0c-0.267 0.567-0.457 1.007-0.57 1.32-0.12 0.32-0.18 0.68-0.18 1.08v0 1.95c0 0.867 0.26 1.523 0.78 1.97 0.513 0.453 1.403 0.68 2.67 0.68v0h5.6c1.233 0 1.85 0.783 1.85 2.35v0c0 0.667-0.15 1.223-0.45 1.67-0.3 0.453-0.767 0.68-1.4 0.68zM89.7-26.5l-15.95 18.15v6.35c0 1.567-0.917 2.35-2.75 2.35v0c-1.833 0-2.75-0.783-2.75-2.35v0-35.6c0-1.6 0.917-2.4 2.75-2.4v0c1.833 0 2.75 0.8 2.75 2.4v0 21.2c0.833-1 1.76-2.077 2.78-3.23 1.013-1.147 2.03-2.313 3.05-3.5 1.013-1.18 2.02-2.347 3.02-3.5 1-1.147 1.933-2.22 2.8-3.22v0 0.05c0.6-0.7 1.2-1.05 1.8-1.05v0c0.333 0 0.66 0.073 0.98 0.22 0.313 0.153 0.653 0.363 1.02 0.63v0h-0.05c0.8 0.667 1.2 1.333 1.2 2v0c0 0.233-0.05 0.49-0.15 0.77-0.1 0.287-0.267 0.53-0.5 0.73zM84.95-13.75l5.5 10.4c0.233 0.433 0.35 0.883 0.35 1.35v0c0 0.867-0.5 1.517-1.5 1.95v0c-0.667 0.4-1.267 0.6-1.8 0.6v0c-0.367 0-0.717-0.123-1.05-0.37-0.333-0.253-0.6-0.563-0.8-0.93v0l-5-9.65c-0.3-0.5-0.45-1-0.45-1.5v0c0-0.833 0.433-1.533 1.3-2.1v0c0.233-0.167 0.477-0.317 0.73-0.45 0.247-0.133 0.52-0.233 0.82-0.3v0c0.367-0.067 0.717 0 1.05 0.2 0.333 0.2 0.617 0.467 0.85 0.8zM100.55-27.9v25.8c0 1.6-0.917 2.4-2.75 2.4v0c-1.867 0-2.8-0.8-2.8-2.4v0-25.8c0-1.6 0.933-2.4 2.8-2.4v0c1.833 0 2.75 0.8 2.75 2.4zM101.6-36.6v0c0 1.067-0.367 1.967-1.1 2.7-0.733 0.733-1.633 1.1-2.7 1.1v0c-1.067 0-1.973-0.367-2.72-1.1-0.753-0.733-1.13-1.633-1.13-2.7v0c0-1.1 0.377-2.017 1.13-2.75 0.747-0.733 1.653-1.1 2.72-1.1v0c1.067 0 1.967 0.367 2.7 1.1 0.733 0.733 1.1 1.65 1.1 2.75zM113-21.75v19.65c0 1.6-0.917 2.4-2.75 2.4v0c-1.833 0-2.75-0.8-2.75-2.4v0-20.1c0-1.367 0.217-2.55 0.65-3.55 0.433-1 1.117-1.817 2.05-2.45v0c1.767-1.267 3.533-1.9 5.3-1.9v0h8.05c1.7 0 3.467 0.633 5.3 1.9v0c1.8 1.267 2.7 3.267 2.7 6v0 20.1c0 1.6-0.917 2.4-2.75 2.4v0c-1.833 0-2.75-0.8-2.75-2.4v0-19.65c0-0.867-0.267-1.7-0.8-2.5v0l0.05 0.05c-0.433-0.8-1.317-1.2-2.65-1.2v0h-6.25c-1.367 0-2.267 0.4-2.7 1.2v0c-0.467 0.7-0.7 1.517-0.7 2.45zM152.1-3.5h-6.05c-0.867 0-1.757-0.15-2.67-0.45-0.92-0.3-1.813-0.733-2.68-1.3v0c-1.8-1.167-2.7-3.133-2.7-5.9v0-11.3c0-1.4 0.243-2.6 0.73-3.6 0.48-1 1.137-1.783 1.97-2.35v0c0.867-0.533 1.75-0.95 2.65-1.25 0.9-0.3 1.783-0.45 2.65-0.45v0h8.4c0.833 0 1.7 0.183 2.6 0.55 0.9 0.367 1.733 0.833 2.5 1.4v0c0.767 0.633 1.383 1.467 1.85 2.5 0.467 1.033 0.7 2.2 0.7 3.5v0 21.2c0 1.4-0.223 2.593-0.67 3.58-0.453 0.98-1.08 1.803-1.88 2.47v0c-0.767 0.633-1.59 1.127-2.47 1.48-0.887 0.347-1.763 0.52-2.63 0.52v0h-8.4c-1.767 0-3.55-0.517-5.35-1.55v0c-0.933-0.533-1.607-1.217-2.02-2.05-0.42-0.833-0.63-1.8-0.63-2.9v0-0.6c0-0.667 0.217-1.2 0.65-1.6 0.433-0.4 1.117-0.6 2.05-0.6v0c1.867 0.2 2.8 0.933 2.8 2.2v0 0.55c0 0.367 0.26 0.767 0.78 1.2 0.513 0.433 1.387 0.65 2.62 0.65v0h6.25c1.233 0 2.11-0.35 2.63-1.05 0.513-0.7 0.77-1.483 0.77-2.35v0-21.1c0-0.833-0.257-1.593-0.77-2.28-0.52-0.68-1.397-1.02-2.63-1.02v0h-6.25c-1.233 0-2.107 0.34-2.62 1.02-0.52 0.687-0.78 1.447-0.78 2.28v0 10.55c0 0.833 0.26 1.61 0.78 2.33 0.513 0.713 1.387 1.07 2.62 1.07v0h5.2c1.2 0 1.8 0.767 1.8 2.3v0c0 0.7-0.14 1.267-0.42 1.7-0.287 0.433-0.747 0.65-1.38 0.65z" fill="#000000" fill-rule="nonzero" stroke="none" stroke-width="1" stroke-linecap="butt" stroke-linejoin="miter" stroke-miterlimit="10" stroke-dasharray="" stroke-dashoffset="0" font-family="none" font-weight="none" font-size="none" text-anchor="none" style="mix-blend-mode: normal" data-fill-palette-color="quaternary" opacity="1"></path><path transform="translate(59.35,50.55)" d="M24.75-8.4v-6.35c0-0.767-0.283-1.51-0.85-2.23-0.567-0.713-1.567-1.12-3-1.22v0c-0.933 1.133-2.067 1.7-3.4 1.7v0c-1.133 0-2.1-0.4-2.9-1.2-0.8-0.8-1.2-1.783-1.2-2.95v0c0-1.167 0.4-2.15 1.2-2.95 0.8-0.8 1.767-1.2 2.9-1.2v0c0.6 0 1.193 0.167 1.78 0.5 0.58 0.333 1.103 0.733 1.57 1.2v0c0.733-0.033 1.3-0.15 1.7-0.35 0.4-0.2 0.693-0.443 0.88-0.73 0.18-0.28 0.287-0.603 0.32-0.97 0.033-0.367 0.05-0.733 0.05-1.1v0-5.05c0-0.833-0.257-1.6-0.77-2.3-0.52-0.7-1.397-1.05-2.63-1.05v0h-10.45l-0.05 33c0 0.667-0.31 1.173-0.93 1.52-0.613 0.353-1.287 0.53-2.02 0.53v0c-1.967 0-2.95-0.8-2.95-2.4v0-34.7c0-1.2 0.31-2 0.93-2.4 0.613-0.4 1.353-0.6 2.22-0.6v0h14.5c0.867 0 1.793 0.167 2.78 0.5 0.98 0.333 1.903 0.783 2.77 1.35v0h-0.05c0.867 0.633 1.51 1.467 1.93 2.5 0.413 1.033 0.62 2.233 0.62 3.6v0 5.65c0 1.333-0.283 2.423-0.85 3.27-0.567 0.853-1.167 1.53-1.8 2.03v0c0.433 0.267 0.85 0.54 1.25 0.82 0.4 0.287 0.733 0.597 1 0.93v0c0.433 0.467 0.777 1.017 1.03 1.65 0.247 0.633 0.37 1.383 0.37 2.25v0 7.15c0 2.733-1.067 4.75-3.2 6.05v0c-1.067 0.667-2.073 1.167-3.02 1.5-0.953 0.333-1.897 0.5-2.83 0.5v0h-7.4c-0.567 0-1.007-0.233-1.32-0.7-0.32-0.467-0.48-1.083-0.48-1.85v0c0-1.667 0.7-2.5 2.1-2.5v0h6.85c1.233 0 2.1-0.35 2.6-1.05 0.5-0.7 0.75-1.483 0.75-2.35zM43.25-22.15v14.15c0 0.8 0.26 1.55 0.78 2.25 0.513 0.7 1.387 1.05 2.62 1.05v0h6.25c1.233 0 2.11-0.31 2.63-0.93 0.513-0.613 0.77-1.32 0.77-2.12v0-0.55c0-1.567 0.917-2.35 2.75-2.35v0c1.833 0 2.75 0.783 2.75 2.35v0 0.6c0 1.4-0.223 2.55-0.67 3.45-0.453 0.9-1.13 1.683-2.03 2.35v0c-1.767 1.267-3.533 1.9-5.3 1.9v0h-8.4c-1.767 0-3.483-0.633-5.15-1.9v0c-0.8-0.667-1.417-1.507-1.85-2.52-0.433-1.02-0.65-2.197-0.65-3.53v0-14.25c0-2.7 0.833-4.7 2.5-6v0c0.833-0.6 1.693-1.077 2.58-1.43 0.88-0.347 1.737-0.52 2.57-0.52v0h8.4c0.8 0 1.683 0.157 2.65 0.47 0.967 0.32 1.867 0.747 2.7 1.28v0c0.8 0.567 1.443 1.35 1.93 2.35 0.48 1 0.72 2.183 0.72 3.55v0 6.75c0 0.767-0.223 1.45-0.67 2.05-0.453 0.6-1.28 0.9-2.48 0.9v0h-10.8c-1.2 0-1.833-0.783-1.9-2.35v0c0-1.567 0.633-2.35 1.9-2.35v0h8.5l-0.05-4.65c0-0.833-0.257-1.593-0.77-2.28-0.52-0.68-1.397-1.02-2.63-1.02v0h-6.25c-1.233 0-2.107 0.34-2.62 1.02-0.52 0.687-0.78 1.447-0.78 2.28zM82.25 0h-6.55c-1.033 0-2.017-0.143-2.95-0.43-0.933-0.28-1.833-0.687-2.7-1.22v0 0.05c-1.633-1.033-2.45-2.933-2.45-5.7v0-2.45c0-1.367 0.243-2.56 0.73-3.58 0.48-1.013 1.153-1.82 2.02-2.42v0h-0.05c0.833-0.567 1.717-0.993 2.65-1.28 0.933-0.28 1.833-0.42 2.7-0.42v0h11.05v-4.65c0-0.833-0.257-1.593-0.77-2.28-0.52-0.68-1.397-1.02-2.63-1.02v0h-5.85c-1.267 0-2.14 0.307-2.62 0.92-0.487 0.62-0.73 1.347-0.73 2.18v0 0.4c0 1.733-0.933 2.6-2.8 2.6v0c-1.867 0-2.8-0.867-2.8-2.6v0-0.45c0-1.367 0.243-2.517 0.73-3.45 0.48-0.933 1.137-1.717 1.97-2.35v0h-0.05c0.867-0.567 1.777-1.033 2.73-1.4 0.947-0.367 1.853-0.55 2.72-0.55v0h7.6c0.833 0 1.727 0.183 2.68 0.55 0.947 0.367 1.837 0.833 2.67 1.4v0h-0.05c0.867 0.633 1.533 1.457 2 2.47 0.467 1.02 0.7 2.197 0.7 3.53v0 20.05c0 1.6-0.917 2.4-2.75 2.4v0c-0.367 0-0.707-0.017-1.02-0.05-0.32-0.033-0.603-0.127-0.85-0.28-0.253-0.147-0.453-0.363-0.6-0.65-0.153-0.28-0.23-0.653-0.23-1.12v0l-0.05-10.95h-10.1c-0.733 0-1.3 0.083-1.7 0.25-0.4 0.167-0.717 0.433-0.95 0.8v0c-0.267 0.567-0.457 1.007-0.57 1.32-0.12 0.32-0.18 0.68-0.18 1.08v0 1.95c0 0.867 0.26 1.523 0.78 1.97 0.513 0.453 1.403 0.68 2.67 0.68v0h5.6c1.233 0 1.85 0.783 1.85 2.35v0c0 0.667-0.15 1.223-0.45 1.67-0.3 0.453-0.767 0.68-1.4 0.68zM104.15-21.75v19.65c0 1.6-0.917 2.4-2.75 2.4v0c-1.833 0-2.75-0.8-2.75-2.4v0-20.1c0-1.367 0.217-2.55 0.65-3.55 0.433-1 1.117-1.817 2.05-2.45v0c1.767-1.267 3.533-1.9 5.3-1.9v0h8.05c1.7 0 3.467 0.633 5.3 1.9v0c1.8 1.267 2.7 3.267 2.7 6v0 20.1c0 1.6-0.917 2.4-2.75 2.4v0c-1.833 0-2.75-0.8-2.75-2.4v0-19.65c0-0.867-0.267-1.7-0.8-2.5v0l0.05 0.05c-0.433-0.8-1.317-1.2-2.65-1.2v0h-6.25c-1.367 0-2.267 0.4-2.7 1.2v0c-0.467 0.7-0.7 1.517-0.7 2.45z" fill="#000000" fill-rule="nonzero" stroke="none" stroke-width="1" stroke-linecap="butt" stroke-linejoin="miter" stroke-miterlimit="10" stroke-dasharray="" stroke-dashoffset="0" font-family="none" font-weight="none" font-size="none" text-anchor="none" style="mix-blend-mode: normal" data-fill-palette-color="quaternary" opacity="1"></path></g></svg></g></svg></g></svg></g></svg></g><g transform="matrix(1,0,0,1,55.20377310900915,0)"><svg viewBox="0 0 102.75089500913882 109.59402810776571" height="109.59402810776571" width="102.75089500913882"><g><svg xmlns="http://www.w3.org/2000/svg" xmlns:xlink="http://www.w3.org/1999/xlink" version="1.1" x="0" y="0" viewBox="31 16.01433507291386 450 479.96966492708617" style="enable-background:new 0 0 512 512;" xml:space="preserve" height="109.59402810776571" width="102.75089500913882" class="icon-icon-0" data-fill-palette-color="quaternary" id="icon-0"><g fill="#000000" data-fill-palette-color="quaternary"><g fill="#000000" data-fill-palette-color="quaternary"><path d="M447.038 324.113C466.633 318.421 481 300.319 481 278.915c0-25.955-21.115-47.069-47.069-47.069-4.196 0-8.299 0.541-12.243 1.599C421.243 159.769 372.333 96 302.88 75.481c1.255-12.543-3.529-24.965-12.906-33.452 1.887-2.413 4.355-4.697 7.273-5.606 3.884-1.208 8.722 0.125 14.396 3.958 4.576 3.092 10.791 1.89 13.885-2.687 3.092-4.576 1.889-10.792-2.688-13.885-19.876-13.431-38.98-8.88-50.763 8.853-24.854-5.787-49.034 12.758-49.034 39.383-76.058 15.384-132.26 82.249-132.73 161.399-3.944-1.059-8.048-1.599-12.245-1.599C52.115 231.846 31 252.96 31 278.915c0 21.003 13.829 38.832 32.858 44.872l42.152 93.365c3.205 7.098 7.589 13.434 12.849 18.832H80c-16.542 0-30 13.458-30 30s13.458 30 30 30h350c16.542 0 30-13.458 30-30s-13.458-30-30-30h-38.6c5.164-5.295 9.486-11.49 12.673-18.42L447.038 324.113zM245.27 62.433c5.016-9.7 16.817-13.576 26.598-8.752 0.217 0.123 0.437 0.242 0.665 0.35 8.948 4.826 12.864 15.472 9.103 24.94-0.001 0.004-0.003 0.007-0.005 0.011-4.41 11.078-17.342 15.797-27.779 10.401C244.209 84.399 240.138 72.361 245.27 62.433zM51 278.915c0-14.926 12.143-27.069 27.068-27.069 6.154 0 11.959 2.024 16.789 5.854 3.145 2.494 7.476 2.867 11 0.944 3.524-1.921 5.558-5.763 5.166-9.758-7.498-76.231 45.26-143.597 117.239-157.495 7.151 12.629 20.615 20.229 34.741 20.229 0.001 0 0.001 0 0.002 0 13.266 0 25.546-6.521 32.983-17.331 68.635 19.42 111.889 84.554 104.989 154.594-0.394 3.995 1.641 7.837 5.164 9.76 3.525 1.921 7.854 1.551 11.002-0.944 4.829-3.83 10.635-5.854 16.788-5.854 14.926 0 27.069 12.144 27.069 27.069s-12.145 27.069-27.071 27.069c-8.592 0-16.486-3.948-21.659-10.834-4.002-5.326-11.998-5.315-15.99 0.001-10.854 14.449-32.456 14.46-43.319-0.001-4.002-5.326-11.997-5.315-15.99 0.001-10.854 14.45-32.458 14.459-43.319 0-4.001-5.327-11.998-5.316-15.99 0-10.854 14.45-32.459 14.459-43.321-0.001-4.003-5.326-11.998-5.315-15.991 0.001-10.853 14.45-32.458 14.459-43.319 0-4.001-5.326-11.998-5.316-15.991 0-10.856 14.451-32.459 14.458-43.319 0-4.001-5.326-11.998-5.316-15.991 0-5.171 6.885-13.065 10.833-21.66 10.833C63.143 305.984 51 293.841 51 278.915zM440 465.984c0 5.514-4.486 10-10 10H80c-5.514 0-10-4.486-10-10s4.486-10 10-10c15.347 0 335.829 0 350 0C435.514 455.984 440 460.471 440 465.984zM166.149 435.984c-18.038 0-34.488-10.622-41.91-27.063L86.46 325.243c7.844-1.396 15.125-4.735 21.264-9.743 17.137 13.977 42.138 14.005 59.31 0 17.139 13.978 42.141 14.004 59.311-0.001 17.136 13.977 42.138 14.007 59.311 0.001 17.139 13.978 42.14 14.004 59.31-0.001 16.918 13.801 41.93 14.176 59.31 0 5.892 4.806 12.834 8.07 20.315 9.561l-9.62 20.925H150c-5.523 0-10 4.478-10 10s4.477 10 10 10h255.774l-19.873 43.226c-7.478 16.265-23.877 26.774-41.779 26.774H166.149z" fill="#000000" data-fill-palette-color="quaternary"></path><circle cx="170" cy="175.984" r="10" fill="#000000" data-fill-palette-color="quaternary"></circle><circle cx="220" cy="135.984" r="10" fill="#000000" data-fill-palette-color="quaternary"></circle><circle cx="290" cy="155.984" r="10" fill="#000000" data-fill-palette-color="quaternary"></circle><circle cx="240" cy="195.984" r="10" fill="#000000" data-fill-palette-color="quaternary"></circle><circle cx="300" cy="195.984" r="10" fill="#000000" data-fill-palette-color="quaternary"></circle><circle cx="350" cy="185.984" r="10" fill="#000000" data-fill-palette-color="quaternary"></circle><circle cx="360" cy="245.984" r="10" fill="#000000" data-fill-palette-color="quaternary"></circle><circle cx="260" cy="255.984" r="10" fill="#000000" data-fill-palette-color="quaternary"></circle><circle cx="190" cy="235.984" r="10" fill="#000000" data-fill-palette-color="quaternary"></circle><circle cx="150" cy="255.984" r="10" fill="#000000" data-fill-palette-color="quaternary"></circle><path d="M70 155.984c16.542 0 30-13.458 30-30s-13.458-30-30-30-30 13.458-30 30S53.458 155.984 70 155.984zM70 115.984c5.514 0 10 4.486 10 10s-4.486 10-10 10-10-4.486-10-10S64.486 115.984 70 115.984z" fill="#000000" data-fill-palette-color="quaternary"></path><path d="M425 115.984c19.299 0 35-15.701 35-35s-15.701-35-35-35-35 15.701-35 35S405.701 115.984 425 115.984zM425 65.984c8.271 0 15 6.729 15 15s-6.729 15-15 15-15-6.729-15-15S416.729 65.984 425 65.984z" fill="#000000" data-fill-palette-color="quaternary"></path></g></g></svg></g></svg></g><g></g></svg></g></svg></g></svg></g></svg></g><defs></defs></svg><rect width="333.90454557049503" height="333.90454557049503" fill="none" stroke="none" visibility="hidden"></rect></g></svg></g></svg>